%TF.GenerationSoftware,KiCad,Pcbnew,6.0.2+dfsg-1*%
%TF.CreationDate,2023-04-03T20:21:34+02:00*%
%TF.ProjectId,CYC10 Board,43594331-3020-4426-9f61-72642e6b6963,rev?*%
%TF.SameCoordinates,Original*%
%TF.FileFunction,Soldermask,Top*%
%TF.FilePolarity,Negative*%
%FSLAX46Y46*%
G04 Gerber Fmt 4.6, Leading zero omitted, Abs format (unit mm)*
G04 Created by KiCad (PCBNEW 6.0.2+dfsg-1) date 2023-04-03 20:21:34*
%MOMM*%
%LPD*%
G01*
G04 APERTURE LIST*
G04 Aperture macros list*
%AMRoundRect*
0 Rectangle with rounded corners*
0 $1 Rounding radius*
0 $2 $3 $4 $5 $6 $7 $8 $9 X,Y pos of 4 corners*
0 Add a 4 corners polygon primitive as box body*
4,1,4,$2,$3,$4,$5,$6,$7,$8,$9,$2,$3,0*
0 Add four circle primitives for the rounded corners*
1,1,$1+$1,$2,$3*
1,1,$1+$1,$4,$5*
1,1,$1+$1,$6,$7*
1,1,$1+$1,$8,$9*
0 Add four rect primitives between the rounded corners*
20,1,$1+$1,$2,$3,$4,$5,0*
20,1,$1+$1,$4,$5,$6,$7,0*
20,1,$1+$1,$6,$7,$8,$9,0*
20,1,$1+$1,$8,$9,$2,$3,0*%
G04 Aperture macros list end*
%ADD10RoundRect,0.225000X0.225000X0.250000X-0.225000X0.250000X-0.225000X-0.250000X0.225000X-0.250000X0*%
%ADD11RoundRect,0.200000X0.200000X0.275000X-0.200000X0.275000X-0.200000X-0.275000X0.200000X-0.275000X0*%
%ADD12RoundRect,0.218750X-0.256250X0.218750X-0.256250X-0.218750X0.256250X-0.218750X0.256250X0.218750X0*%
%ADD13RoundRect,0.225000X-0.225000X-0.250000X0.225000X-0.250000X0.225000X0.250000X-0.225000X0.250000X0*%
%ADD14C,1.100000*%
%ADD15R,0.300000X2.600000*%
%ADD16O,1.350000X2.700000*%
%ADD17O,1.650000X3.300000*%
%ADD18C,1.200000*%
%ADD19R,3.500000X2.500000*%
%ADD20O,1.750000X3.500000*%
%ADD21RoundRect,0.218750X-0.218750X-0.256250X0.218750X-0.256250X0.218750X0.256250X-0.218750X0.256250X0*%
%ADD22R,0.800000X0.900000*%
%ADD23C,3.200000*%
%ADD24RoundRect,0.225000X-0.250000X0.225000X-0.250000X-0.225000X0.250000X-0.225000X0.250000X0.225000X0*%
%ADD25RoundRect,0.225000X0.250000X-0.225000X0.250000X0.225000X-0.250000X0.225000X-0.250000X-0.225000X0*%
%ADD26R,1.700000X1.300000*%
%ADD27RoundRect,0.200000X-0.275000X0.200000X-0.275000X-0.200000X0.275000X-0.200000X0.275000X0.200000X0*%
%ADD28RoundRect,0.200000X0.275000X-0.200000X0.275000X0.200000X-0.275000X0.200000X-0.275000X-0.200000X0*%
%ADD29R,0.425000X0.900000*%
%ADD30R,0.900000X0.425000*%
%ADD31R,1.700000X1.700000*%
%ADD32O,1.700000X1.700000*%
%ADD33C,1.524000*%
%ADD34C,3.300000*%
%ADD35C,4.000000*%
%ADD36R,1.600000X1.600000*%
%ADD37C,1.600000*%
%ADD38C,1.800000*%
%ADD39C,1.300000*%
%ADD40R,1.800000X0.700000*%
%ADD41R,2.800000X1.500000*%
%ADD42R,1.800000X1.000000*%
G04 APERTURE END LIST*
D10*
%TO.C,C1*%
X41623300Y-59624000D03*
X40073300Y-59624000D03*
%TD*%
D11*
%TO.C,R1*%
X41653000Y-61869400D03*
X40003000Y-61869400D03*
%TD*%
D12*
%TO.C,R9*%
X51310500Y-34025700D03*
X51310500Y-35600700D03*
%TD*%
%TO.C,R10*%
X49763700Y-37040700D03*
X49763700Y-38615700D03*
%TD*%
%TO.C,R12*%
X54401700Y-34005400D03*
X54401700Y-35580400D03*
%TD*%
%TO.C,R13*%
X55925700Y-37050900D03*
X55925700Y-38625900D03*
%TD*%
%TO.C,R14*%
X57470000Y-34033400D03*
X57470000Y-35608400D03*
%TD*%
%TO.C,R16*%
X60538400Y-34010500D03*
X60538400Y-35585500D03*
%TD*%
D10*
%TO.C,C16*%
X21232200Y-37546300D03*
X19682200Y-37546300D03*
%TD*%
%TO.C,C17*%
X29301800Y-37518400D03*
X27751800Y-37518400D03*
%TD*%
D13*
%TO.C,C18*%
X19641600Y-33324800D03*
X21191600Y-33324800D03*
%TD*%
%TO.C,C19*%
X27756900Y-33324800D03*
X29306900Y-33324800D03*
%TD*%
D14*
%TO.C,J8*%
X58689900Y-27400700D03*
X53689900Y-27400700D03*
D15*
X51689900Y-29810700D03*
X52189900Y-29810700D03*
X52689900Y-29810700D03*
X53189900Y-29810700D03*
X53689900Y-29810700D03*
X54189900Y-29810700D03*
X54689900Y-29810700D03*
X55189900Y-29810700D03*
X55689900Y-29810700D03*
X56189900Y-29810700D03*
X56689900Y-29810700D03*
X57189900Y-29810700D03*
X57689900Y-29810700D03*
X58189900Y-29810700D03*
X58689900Y-29810700D03*
X59189900Y-29810700D03*
X59689900Y-29810700D03*
X60189900Y-29810700D03*
X60689900Y-29810700D03*
D16*
X63439900Y-23090700D03*
D17*
X63439900Y-29050700D03*
D16*
X48939900Y-23090700D03*
D17*
X48939900Y-29050700D03*
%TD*%
D18*
%TO.C,J12*%
X29488200Y-21458100D03*
X29488200Y-23958100D03*
X19488200Y-21458100D03*
X19488200Y-23958100D03*
X24488200Y-28958100D03*
D19*
X24488200Y-23997100D03*
D20*
X19488200Y-29003100D03*
X29488200Y-29003100D03*
X21988200Y-29003100D03*
X26988200Y-29003100D03*
%TD*%
D12*
%TO.C,R11*%
X52857400Y-37028000D03*
X52857400Y-38603000D03*
%TD*%
%TO.C,R17*%
X66045100Y-30815100D03*
X66045100Y-32390100D03*
%TD*%
D21*
%TO.C,R18*%
X64543800Y-34163000D03*
X66118800Y-34163000D03*
%TD*%
D13*
%TO.C,R21*%
X19667000Y-35420300D03*
X21217000Y-35420300D03*
%TD*%
%TO.C,R22*%
X27726400Y-35425400D03*
X29276400Y-35425400D03*
%TD*%
D22*
%TO.C,D3*%
X40231100Y-81103100D03*
X38331100Y-81103100D03*
X39281100Y-83103100D03*
%TD*%
%TO.C,D1*%
X36045100Y-81108100D03*
X34145100Y-81108100D03*
X35095100Y-83108100D03*
%TD*%
%TO.C,D4*%
X44465200Y-81130900D03*
X42565200Y-81130900D03*
X43515200Y-83130900D03*
%TD*%
%TO.C,D2*%
X48549500Y-81138900D03*
X46649500Y-81138900D03*
X47599500Y-83138900D03*
%TD*%
D23*
%TO.C,H2*%
X92362020Y-25250140D03*
%TD*%
%TO.C,H3*%
X93309400Y-93817400D03*
%TD*%
%TO.C,H4*%
X22550100Y-82326500D03*
%TD*%
D12*
%TO.C,R15*%
X58999100Y-37058500D03*
X58999100Y-38633500D03*
%TD*%
D24*
%TO.C,C2*%
X78724700Y-40723600D03*
X78724700Y-42273600D03*
%TD*%
D25*
%TO.C,C3*%
X83281500Y-42243100D03*
X83281500Y-40693100D03*
%TD*%
D26*
%TO.C,D5*%
X81020900Y-42278300D03*
X81020900Y-38778300D03*
%TD*%
D18*
%TO.C,J11*%
X74745800Y-21437700D03*
X79745800Y-28937700D03*
X84745800Y-23937700D03*
X84745800Y-21437700D03*
X74745800Y-23937700D03*
D19*
X79745800Y-23976700D03*
D20*
X74745800Y-28982700D03*
X84745800Y-28982700D03*
X77245800Y-28982700D03*
X82245800Y-28982700D03*
%TD*%
D22*
%TO.C,Q1*%
X76718100Y-38714000D03*
X78618100Y-38714000D03*
X77668100Y-36714000D03*
%TD*%
D27*
%TO.C,R28*%
X77668100Y-33094200D03*
X77668100Y-34744200D03*
%TD*%
%TO.C,R29*%
X76708000Y-40668500D03*
X76708000Y-42318500D03*
%TD*%
D28*
%TO.C,R30*%
X83256100Y-38777700D03*
X83256100Y-37127700D03*
%TD*%
D27*
%TO.C,R31*%
X80985300Y-35273500D03*
X80985300Y-36923500D03*
%TD*%
D29*
%TO.C,RN1*%
X40151200Y-77720500D03*
X40951200Y-77720500D03*
X41751200Y-77720500D03*
X42551200Y-77720500D03*
X42551200Y-76020500D03*
X41751200Y-76020500D03*
X40951200Y-76020500D03*
X40151200Y-76020500D03*
%TD*%
D30*
%TO.C,RN4*%
X41840500Y-57633700D03*
X41840500Y-56833700D03*
X41840500Y-56033700D03*
X41840500Y-55233700D03*
X40140500Y-55233700D03*
X40140500Y-56033700D03*
X40140500Y-56833700D03*
X40140500Y-57633700D03*
%TD*%
D23*
%TO.C,H1*%
X22580600Y-43926800D03*
%TD*%
D31*
%TO.C,J2*%
X41473200Y-65077300D03*
D32*
X44013200Y-65077300D03*
X46553200Y-65077300D03*
%TD*%
D31*
%TO.C,J4*%
X41483300Y-47127000D03*
D32*
X44023300Y-47127000D03*
X46563300Y-47127000D03*
X49103300Y-47127000D03*
X51643300Y-47127000D03*
X54183300Y-47127000D03*
X56723300Y-47127000D03*
X59263300Y-47127000D03*
X61803300Y-47127000D03*
X64343300Y-47127000D03*
X66883300Y-47127000D03*
X69423300Y-47127000D03*
X71963300Y-47127000D03*
X74503300Y-47127000D03*
%TD*%
D31*
%TO.C,J3*%
X41483300Y-49667000D03*
D32*
X44023300Y-49667000D03*
X46563300Y-49667000D03*
X49103300Y-49667000D03*
X51643300Y-49667000D03*
X54183300Y-49667000D03*
%TD*%
D31*
%TO.C,J5*%
X77068700Y-51065300D03*
D32*
X77068700Y-53605300D03*
X77068700Y-56145300D03*
X77068700Y-58685300D03*
X77068700Y-61225300D03*
X77068700Y-63765300D03*
X79608700Y-51065300D03*
X79608700Y-53605300D03*
X79608700Y-56145300D03*
X79608700Y-58685300D03*
X79608700Y-61225300D03*
X79608700Y-63765300D03*
%TD*%
D31*
%TO.C,J1*%
X41473200Y-67617300D03*
D32*
X44013200Y-67617300D03*
X46553200Y-67617300D03*
X49093200Y-67617300D03*
X51633200Y-67617300D03*
X54173200Y-67617300D03*
X56713200Y-67617300D03*
X59253200Y-67617300D03*
X61793200Y-67617300D03*
X64333200Y-67617300D03*
X66873200Y-67617300D03*
X69413200Y-67617300D03*
X71953200Y-67617300D03*
X74493200Y-67617300D03*
%TD*%
D33*
%TO.C,J9*%
X48020800Y-92495000D03*
X45420800Y-92495000D03*
X50120800Y-92495000D03*
X43320800Y-92495000D03*
X50120800Y-89995000D03*
X43320800Y-89995000D03*
D34*
X46720800Y-96295000D03*
X53470800Y-95495000D03*
X39970800Y-95495000D03*
%TD*%
D33*
%TO.C,J10*%
X28620800Y-92495000D03*
X26020800Y-92495000D03*
X30720800Y-92495000D03*
X23920800Y-92495000D03*
X30720800Y-89995000D03*
X23920800Y-89995000D03*
D34*
X27320800Y-96295000D03*
X34070800Y-95495000D03*
X20570800Y-95495000D03*
%TD*%
D31*
%TO.C,J13*%
X94107000Y-37815500D03*
D32*
X91567000Y-37815500D03*
X94107000Y-40355500D03*
X91567000Y-40355500D03*
X94107000Y-42895500D03*
X91567000Y-42895500D03*
X94107000Y-45435500D03*
X91567000Y-45435500D03*
X94107000Y-47975500D03*
X91567000Y-47975500D03*
X94107000Y-50515500D03*
X91567000Y-50515500D03*
X94107000Y-53055500D03*
X91567000Y-53055500D03*
X94107000Y-55595500D03*
X91567000Y-55595500D03*
X94107000Y-58135500D03*
X91567000Y-58135500D03*
X94107000Y-60675500D03*
X91567000Y-60675500D03*
X94107000Y-63215500D03*
X91567000Y-63215500D03*
X94107000Y-65755500D03*
X91567000Y-65755500D03*
X94107000Y-68295500D03*
X91567000Y-68295500D03*
X94107000Y-70835500D03*
X91567000Y-70835500D03*
X94107000Y-73375500D03*
X91567000Y-73375500D03*
X94107000Y-75915500D03*
X91567000Y-75915500D03*
X94107000Y-78455500D03*
X91567000Y-78455500D03*
X94107000Y-80995500D03*
X91567000Y-80995500D03*
X94107000Y-83535500D03*
X91567000Y-83535500D03*
X94107000Y-86075500D03*
X91567000Y-86075500D03*
%TD*%
D35*
%TO.C,J6*%
X60111200Y-87175500D03*
X85111200Y-87175500D03*
D36*
X67071200Y-85755500D03*
D37*
X69841200Y-85755500D03*
X72611200Y-85755500D03*
X75381200Y-85755500D03*
X78151200Y-85755500D03*
X68456200Y-88595500D03*
X71226200Y-88595500D03*
X73996200Y-88595500D03*
X76766200Y-88595500D03*
%TD*%
D38*
%TO.C,P1*%
X32419453Y-72221530D03*
D39*
X32419453Y-51221500D03*
D40*
X35369320Y-51641400D03*
D41*
X33419270Y-49072100D03*
X33419270Y-74872100D03*
X18919300Y-49072100D03*
X18919300Y-76372100D03*
D42*
X35369320Y-69591370D03*
X35369320Y-67091370D03*
X35369320Y-64591370D03*
X35369320Y-62091372D03*
X35369320Y-59591370D03*
X35369320Y-57091370D03*
X35369320Y-54591370D03*
X35369320Y-52941370D03*
X35369320Y-72091370D03*
D40*
X35369320Y-50441400D03*
%TD*%
M02*
