%TF.GenerationSoftware,KiCad,Pcbnew,6.0.2+dfsg-1*%
%TF.CreationDate,2023-04-03T20:21:34+02:00*%
%TF.ProjectId,CYC10 Board,43594331-3020-4426-9f61-72642e6b6963,rev?*%
%TF.SameCoordinates,Original*%
%TF.FileFunction,Soldermask,Bot*%
%TF.FilePolarity,Negative*%
%FSLAX46Y46*%
G04 Gerber Fmt 4.6, Leading zero omitted, Abs format (unit mm)*
G04 Created by KiCad (PCBNEW 6.0.2+dfsg-1) date 2023-04-03 20:21:34*
%MOMM*%
%LPD*%
G01*
G04 APERTURE LIST*
%ADD10C,1.100000*%
%ADD11O,1.350000X2.700000*%
%ADD12O,1.650000X3.300000*%
%ADD13C,1.200000*%
%ADD14R,3.500000X2.500000*%
%ADD15O,1.750000X3.500000*%
%ADD16C,3.200000*%
%ADD17R,1.700000X1.700000*%
%ADD18O,1.700000X1.700000*%
%ADD19C,1.524000*%
%ADD20C,3.300000*%
%ADD21C,4.000000*%
%ADD22R,1.600000X1.600000*%
%ADD23C,1.600000*%
%ADD24C,1.800000*%
%ADD25C,1.300000*%
%ADD26R,0.425000X0.900000*%
G04 APERTURE END LIST*
D10*
%TO.C,J8*%
X58689900Y-27400700D03*
X53689900Y-27400700D03*
D11*
X63439900Y-23090700D03*
D12*
X63439900Y-29050700D03*
D11*
X48939900Y-23090700D03*
D12*
X48939900Y-29050700D03*
%TD*%
D13*
%TO.C,J12*%
X29488200Y-21458100D03*
X29488200Y-23958100D03*
X19488200Y-21458100D03*
X19488200Y-23958100D03*
X24488200Y-28958100D03*
D14*
X24488200Y-23997100D03*
D15*
X19488200Y-29003100D03*
X29488200Y-29003100D03*
X21988200Y-29003100D03*
X26988200Y-29003100D03*
%TD*%
D16*
%TO.C,H2*%
X92362020Y-25250140D03*
%TD*%
%TO.C,H3*%
X93309400Y-93817400D03*
%TD*%
%TO.C,H4*%
X22550100Y-82326500D03*
%TD*%
D13*
%TO.C,J11*%
X74745800Y-21437700D03*
X79745800Y-28937700D03*
X84745800Y-23937700D03*
X84745800Y-21437700D03*
X74745800Y-23937700D03*
D14*
X79745800Y-23976700D03*
D15*
X74745800Y-28982700D03*
X84745800Y-28982700D03*
X77245800Y-28982700D03*
X82245800Y-28982700D03*
%TD*%
D16*
%TO.C,H1*%
X22580600Y-43926800D03*
%TD*%
D17*
%TO.C,J2*%
X41473200Y-65077300D03*
D18*
X44013200Y-65077300D03*
X46553200Y-65077300D03*
%TD*%
D17*
%TO.C,J4*%
X41483300Y-47127000D03*
D18*
X44023300Y-47127000D03*
X46563300Y-47127000D03*
X49103300Y-47127000D03*
X51643300Y-47127000D03*
X54183300Y-47127000D03*
X56723300Y-47127000D03*
X59263300Y-47127000D03*
X61803300Y-47127000D03*
X64343300Y-47127000D03*
X66883300Y-47127000D03*
X69423300Y-47127000D03*
X71963300Y-47127000D03*
X74503300Y-47127000D03*
%TD*%
D17*
%TO.C,J3*%
X41483300Y-49667000D03*
D18*
X44023300Y-49667000D03*
X46563300Y-49667000D03*
X49103300Y-49667000D03*
X51643300Y-49667000D03*
X54183300Y-49667000D03*
%TD*%
D17*
%TO.C,J5*%
X77068700Y-51065300D03*
D18*
X77068700Y-53605300D03*
X77068700Y-56145300D03*
X77068700Y-58685300D03*
X77068700Y-61225300D03*
X77068700Y-63765300D03*
X79608700Y-51065300D03*
X79608700Y-53605300D03*
X79608700Y-56145300D03*
X79608700Y-58685300D03*
X79608700Y-61225300D03*
X79608700Y-63765300D03*
%TD*%
D17*
%TO.C,J1*%
X41473200Y-67617300D03*
D18*
X44013200Y-67617300D03*
X46553200Y-67617300D03*
X49093200Y-67617300D03*
X51633200Y-67617300D03*
X54173200Y-67617300D03*
X56713200Y-67617300D03*
X59253200Y-67617300D03*
X61793200Y-67617300D03*
X64333200Y-67617300D03*
X66873200Y-67617300D03*
X69413200Y-67617300D03*
X71953200Y-67617300D03*
X74493200Y-67617300D03*
%TD*%
D19*
%TO.C,J9*%
X48020800Y-92495000D03*
X45420800Y-92495000D03*
X50120800Y-92495000D03*
X43320800Y-92495000D03*
X50120800Y-89995000D03*
X43320800Y-89995000D03*
D20*
X46720800Y-96295000D03*
X53470800Y-95495000D03*
X39970800Y-95495000D03*
%TD*%
D19*
%TO.C,J10*%
X28620800Y-92495000D03*
X26020800Y-92495000D03*
X30720800Y-92495000D03*
X23920800Y-92495000D03*
X30720800Y-89995000D03*
X23920800Y-89995000D03*
D20*
X27320800Y-96295000D03*
X34070800Y-95495000D03*
X20570800Y-95495000D03*
%TD*%
D17*
%TO.C,J13*%
X94107000Y-37815500D03*
D18*
X91567000Y-37815500D03*
X94107000Y-40355500D03*
X91567000Y-40355500D03*
X94107000Y-42895500D03*
X91567000Y-42895500D03*
X94107000Y-45435500D03*
X91567000Y-45435500D03*
X94107000Y-47975500D03*
X91567000Y-47975500D03*
X94107000Y-50515500D03*
X91567000Y-50515500D03*
X94107000Y-53055500D03*
X91567000Y-53055500D03*
X94107000Y-55595500D03*
X91567000Y-55595500D03*
X94107000Y-58135500D03*
X91567000Y-58135500D03*
X94107000Y-60675500D03*
X91567000Y-60675500D03*
X94107000Y-63215500D03*
X91567000Y-63215500D03*
X94107000Y-65755500D03*
X91567000Y-65755500D03*
X94107000Y-68295500D03*
X91567000Y-68295500D03*
X94107000Y-70835500D03*
X91567000Y-70835500D03*
X94107000Y-73375500D03*
X91567000Y-73375500D03*
X94107000Y-75915500D03*
X91567000Y-75915500D03*
X94107000Y-78455500D03*
X91567000Y-78455500D03*
X94107000Y-80995500D03*
X91567000Y-80995500D03*
X94107000Y-83535500D03*
X91567000Y-83535500D03*
X94107000Y-86075500D03*
X91567000Y-86075500D03*
%TD*%
D21*
%TO.C,J6*%
X60111200Y-87175500D03*
X85111200Y-87175500D03*
D22*
X67071200Y-85755500D03*
D23*
X69841200Y-85755500D03*
X72611200Y-85755500D03*
X75381200Y-85755500D03*
X78151200Y-85755500D03*
X68456200Y-88595500D03*
X71226200Y-88595500D03*
X73996200Y-88595500D03*
X76766200Y-88595500D03*
%TD*%
D24*
%TO.C,P1*%
X32419453Y-72221530D03*
D25*
X32419453Y-51221500D03*
%TD*%
D26*
%TO.C,RN3*%
X73872200Y-92301600D03*
X74672200Y-92301600D03*
X75472200Y-92301600D03*
X76272200Y-92301600D03*
X76272200Y-94001600D03*
X75472200Y-94001600D03*
X74672200Y-94001600D03*
X73872200Y-94001600D03*
%TD*%
%TO.C,RN2*%
X68431500Y-92301600D03*
X69231500Y-92301600D03*
X70031500Y-92301600D03*
X70831500Y-92301600D03*
X70831500Y-94001600D03*
X70031500Y-94001600D03*
X69231500Y-94001600D03*
X68431500Y-94001600D03*
%TD*%
M02*
