%TF.GenerationSoftware,KiCad,Pcbnew,6.0.2+dfsg-1*%
%TF.CreationDate,2023-04-03T20:21:33+02:00*%
%TF.ProjectId,CYC10 Board,43594331-3020-4426-9f61-72642e6b6963,rev?*%
%TF.SameCoordinates,Original*%
%TF.FileFunction,Paste,Top*%
%TF.FilePolarity,Positive*%
%FSLAX46Y46*%
G04 Gerber Fmt 4.6, Leading zero omitted, Abs format (unit mm)*
G04 Created by KiCad (PCBNEW 6.0.2+dfsg-1) date 2023-04-03 20:21:33*
%MOMM*%
%LPD*%
G01*
G04 APERTURE LIST*
G04 Aperture macros list*
%AMRoundRect*
0 Rectangle with rounded corners*
0 $1 Rounding radius*
0 $2 $3 $4 $5 $6 $7 $8 $9 X,Y pos of 4 corners*
0 Add a 4 corners polygon primitive as box body*
4,1,4,$2,$3,$4,$5,$6,$7,$8,$9,$2,$3,0*
0 Add four circle primitives for the rounded corners*
1,1,$1+$1,$2,$3*
1,1,$1+$1,$4,$5*
1,1,$1+$1,$6,$7*
1,1,$1+$1,$8,$9*
0 Add four rect primitives between the rounded corners*
20,1,$1+$1,$2,$3,$4,$5,0*
20,1,$1+$1,$4,$5,$6,$7,0*
20,1,$1+$1,$6,$7,$8,$9,0*
20,1,$1+$1,$8,$9,$2,$3,0*%
G04 Aperture macros list end*
%ADD10RoundRect,0.225000X0.225000X0.250000X-0.225000X0.250000X-0.225000X-0.250000X0.225000X-0.250000X0*%
%ADD11RoundRect,0.200000X0.200000X0.275000X-0.200000X0.275000X-0.200000X-0.275000X0.200000X-0.275000X0*%
%ADD12RoundRect,0.218750X-0.256250X0.218750X-0.256250X-0.218750X0.256250X-0.218750X0.256250X0.218750X0*%
%ADD13RoundRect,0.225000X-0.225000X-0.250000X0.225000X-0.250000X0.225000X0.250000X-0.225000X0.250000X0*%
%ADD14R,0.300000X2.600000*%
%ADD15RoundRect,0.218750X-0.218750X-0.256250X0.218750X-0.256250X0.218750X0.256250X-0.218750X0.256250X0*%
%ADD16R,0.800000X0.900000*%
%ADD17RoundRect,0.225000X-0.250000X0.225000X-0.250000X-0.225000X0.250000X-0.225000X0.250000X0.225000X0*%
%ADD18RoundRect,0.225000X0.250000X-0.225000X0.250000X0.225000X-0.250000X0.225000X-0.250000X-0.225000X0*%
%ADD19R,1.700000X1.300000*%
%ADD20RoundRect,0.200000X-0.275000X0.200000X-0.275000X-0.200000X0.275000X-0.200000X0.275000X0.200000X0*%
%ADD21RoundRect,0.200000X0.275000X-0.200000X0.275000X0.200000X-0.275000X0.200000X-0.275000X-0.200000X0*%
%ADD22R,0.425000X0.900000*%
%ADD23R,0.900000X0.425000*%
%ADD24R,1.800000X0.700000*%
%ADD25R,2.800000X1.500000*%
%ADD26R,1.800000X1.000000*%
G04 APERTURE END LIST*
D10*
%TO.C,C1*%
X41623300Y-59624000D03*
X40073300Y-59624000D03*
%TD*%
D11*
%TO.C,R1*%
X41653000Y-61869400D03*
X40003000Y-61869400D03*
%TD*%
D12*
%TO.C,R9*%
X51310500Y-34025700D03*
X51310500Y-35600700D03*
%TD*%
%TO.C,R10*%
X49763700Y-37040700D03*
X49763700Y-38615700D03*
%TD*%
%TO.C,R12*%
X54401700Y-34005400D03*
X54401700Y-35580400D03*
%TD*%
%TO.C,R13*%
X55925700Y-37050900D03*
X55925700Y-38625900D03*
%TD*%
%TO.C,R14*%
X57470000Y-34033400D03*
X57470000Y-35608400D03*
%TD*%
%TO.C,R16*%
X60538400Y-34010500D03*
X60538400Y-35585500D03*
%TD*%
D10*
%TO.C,C16*%
X21232200Y-37546300D03*
X19682200Y-37546300D03*
%TD*%
%TO.C,C17*%
X29301800Y-37518400D03*
X27751800Y-37518400D03*
%TD*%
D13*
%TO.C,C18*%
X19641600Y-33324800D03*
X21191600Y-33324800D03*
%TD*%
%TO.C,C19*%
X27756900Y-33324800D03*
X29306900Y-33324800D03*
%TD*%
D14*
%TO.C,J8*%
X51689900Y-29810700D03*
X52189900Y-29810700D03*
X52689900Y-29810700D03*
X53189900Y-29810700D03*
X53689900Y-29810700D03*
X54189900Y-29810700D03*
X54689900Y-29810700D03*
X55189900Y-29810700D03*
X55689900Y-29810700D03*
X56189900Y-29810700D03*
X56689900Y-29810700D03*
X57189900Y-29810700D03*
X57689900Y-29810700D03*
X58189900Y-29810700D03*
X58689900Y-29810700D03*
X59189900Y-29810700D03*
X59689900Y-29810700D03*
X60189900Y-29810700D03*
X60689900Y-29810700D03*
%TD*%
D12*
%TO.C,R11*%
X52857400Y-37028000D03*
X52857400Y-38603000D03*
%TD*%
%TO.C,R17*%
X66045100Y-30815100D03*
X66045100Y-32390100D03*
%TD*%
D15*
%TO.C,R18*%
X64543800Y-34163000D03*
X66118800Y-34163000D03*
%TD*%
D13*
%TO.C,R21*%
X19667000Y-35420300D03*
X21217000Y-35420300D03*
%TD*%
%TO.C,R22*%
X27726400Y-35425400D03*
X29276400Y-35425400D03*
%TD*%
D16*
%TO.C,D3*%
X40231100Y-81103100D03*
X38331100Y-81103100D03*
X39281100Y-83103100D03*
%TD*%
%TO.C,D1*%
X36045100Y-81108100D03*
X34145100Y-81108100D03*
X35095100Y-83108100D03*
%TD*%
%TO.C,D4*%
X44465200Y-81130900D03*
X42565200Y-81130900D03*
X43515200Y-83130900D03*
%TD*%
%TO.C,D2*%
X48549500Y-81138900D03*
X46649500Y-81138900D03*
X47599500Y-83138900D03*
%TD*%
D12*
%TO.C,R15*%
X58999100Y-37058500D03*
X58999100Y-38633500D03*
%TD*%
D17*
%TO.C,C2*%
X78724700Y-40723600D03*
X78724700Y-42273600D03*
%TD*%
D18*
%TO.C,C3*%
X83281500Y-42243100D03*
X83281500Y-40693100D03*
%TD*%
D19*
%TO.C,D5*%
X81020900Y-42278300D03*
X81020900Y-38778300D03*
%TD*%
D16*
%TO.C,Q1*%
X76718100Y-38714000D03*
X78618100Y-38714000D03*
X77668100Y-36714000D03*
%TD*%
D20*
%TO.C,R28*%
X77668100Y-33094200D03*
X77668100Y-34744200D03*
%TD*%
%TO.C,R29*%
X76708000Y-40668500D03*
X76708000Y-42318500D03*
%TD*%
D21*
%TO.C,R30*%
X83256100Y-38777700D03*
X83256100Y-37127700D03*
%TD*%
D20*
%TO.C,R31*%
X80985300Y-35273500D03*
X80985300Y-36923500D03*
%TD*%
D22*
%TO.C,RN1*%
X40151200Y-77720500D03*
X40951200Y-77720500D03*
X41751200Y-77720500D03*
X42551200Y-77720500D03*
X42551200Y-76020500D03*
X41751200Y-76020500D03*
X40951200Y-76020500D03*
X40151200Y-76020500D03*
%TD*%
D23*
%TO.C,RN4*%
X41840500Y-57633700D03*
X41840500Y-56833700D03*
X41840500Y-56033700D03*
X41840500Y-55233700D03*
X40140500Y-55233700D03*
X40140500Y-56033700D03*
X40140500Y-56833700D03*
X40140500Y-57633700D03*
%TD*%
D24*
%TO.C,P1*%
X35369320Y-51641400D03*
D25*
X33419270Y-49072100D03*
X33419270Y-74872100D03*
X18919300Y-49072100D03*
X18919300Y-76372100D03*
D26*
X35369320Y-69591370D03*
X35369320Y-67091370D03*
X35369320Y-64591370D03*
X35369320Y-62091372D03*
X35369320Y-59591370D03*
X35369320Y-57091370D03*
X35369320Y-54591370D03*
X35369320Y-52941370D03*
X35369320Y-72091370D03*
D24*
X35369320Y-50441400D03*
%TD*%
M02*
