M48
; DRILL file {KiCad 6.0.2+dfsg-1} date lun 03 abr 2023 20:22:11
; FORMAT={-:-/ absolute / inch / decimal}
; #@! TF.CreationDate,2023-04-03T20:22:11+02:00
; #@! TF.GenerationSoftware,Kicad,Pcbnew,6.0.2+dfsg-1
; #@! TF.FileFunction,Plated,1,2,PTH
FMAT,2
INCH
; #@! TA.AperFunction,Plated,PTH,ViaDrill
T1C0.0157
; #@! TA.AperFunction,Plated,PTH,ComponentDrill
T2C0.0300
; #@! TA.AperFunction,Plated,PTH,ComponentDrill
T3C0.0394
; #@! TA.AperFunction,Plated,PTH,ComponentDrill
T4C0.0472
; #@! TA.AperFunction,Plated,PTH,ComponentDrill
T5C0.0906
; #@! TA.AperFunction,Plated,PTH,ComponentDrill
T6C0.1260
%
G90
G05
T1
X1.3925Y-2.3999
X1.5058Y-2.3325
X1.5282Y-3.1517
X1.5968Y-2.9108
X1.6195Y-2.4803
X1.6325Y-2.0871
X1.6732Y-2.8382
X1.7093Y-3.0293
X1.7652Y-2.2369
X1.8754Y-3.3147
X1.9592Y-1.4064
X2.0525Y-1.2829
X2.1903Y-2.7402
X2.2444Y-1.647
X2.2673Y-2.9346
X2.2858Y-1.647
X2.2867Y-1.9644
X2.3605Y-1.9554
X2.3667Y-2.5672
X2.4258Y-1.3908
X2.5672Y-1.7217
X2.5964Y-1.6925
X2.8195Y-2.8565
X3.0032Y-1.4494
X3.0351Y-1.7683
T2
X0.9418Y-3.5431
X0.9418Y-3.6415
X1.0244Y-3.6415
X1.1268Y-3.6415
X1.2095Y-3.5431
X1.2095Y-3.6415
X1.7055Y-3.5431
X1.7055Y-3.6415
X1.7882Y-3.6415
X1.8906Y-3.6415
X1.9733Y-3.5431
X1.9733Y-3.6415
T3
X1.6328Y-2.5621
X1.6328Y-2.6621
X1.6332Y-1.8554
X1.6332Y-1.9554
X1.7328Y-2.5621
X1.7328Y-2.6621
X1.7332Y-1.8554
X1.7332Y-1.9554
X1.8328Y-2.5621
X1.8328Y-2.6621
X1.8332Y-1.8554
X1.8332Y-1.9554
X1.9328Y-2.6621
X1.9332Y-1.8554
X1.9332Y-1.9554
X2.0328Y-2.6621
X2.0332Y-1.8554
X2.0332Y-1.9554
X2.1328Y-2.6621
X2.1332Y-1.8554
X2.1332Y-1.9554
X2.2328Y-2.6621
X2.2332Y-1.8554
X2.3328Y-2.6621
X2.3332Y-1.8554
X2.4328Y-2.6621
X2.4332Y-1.8554
X2.5328Y-2.6621
X2.5332Y-1.8554
X2.6328Y-2.6621
X2.6332Y-1.8554
X2.6406Y-3.3762
X2.6951Y-3.488
X2.7328Y-2.6621
X2.7332Y-1.8554
X2.7497Y-3.3762
X2.8042Y-3.488
X2.8328Y-2.6621
X2.8332Y-1.8554
X2.8587Y-3.3762
X2.9132Y-3.488
X2.9328Y-2.6621
X2.9332Y-1.8554
X2.9678Y-3.3762
X3.0223Y-3.488
X3.0342Y-2.0104
X3.0342Y-2.1104
X3.0342Y-2.2104
X3.0342Y-2.3104
X3.0342Y-2.4104
X3.0342Y-2.5104
X3.0768Y-3.3762
X3.1342Y-2.0104
X3.1342Y-2.1104
X3.1342Y-2.2104
X3.1342Y-2.3104
X3.1342Y-2.4104
X3.1342Y-2.5104
X3.605Y-1.4888
X3.605Y-1.5888
X3.605Y-1.6888
X3.605Y-1.7888
X3.605Y-1.8888
X3.605Y-1.9888
X3.605Y-2.0888
X3.605Y-2.1888
X3.605Y-2.2888
X3.605Y-2.3888
X3.605Y-2.4888
X3.605Y-2.5888
X3.605Y-2.6888
X3.605Y-2.7888
X3.605Y-2.8888
X3.605Y-2.9888
X3.605Y-3.0888
X3.605Y-3.1888
X3.605Y-3.2888
X3.605Y-3.3888
X3.705Y-1.4888
X3.705Y-1.5888
X3.705Y-1.6888
X3.705Y-1.7888
X3.705Y-1.8888
X3.705Y-1.9888
X3.705Y-2.0888
X3.705Y-2.1888
X3.705Y-2.2888
X3.705Y-2.3888
X3.705Y-2.4888
X3.705Y-2.5888
X3.705Y-2.6888
X3.705Y-2.7888
X3.705Y-2.8888
X3.705Y-2.9888
X3.705Y-3.0888
X3.705Y-3.1888
X3.705Y-3.2888
X3.705Y-3.3888
T4
X0.7673Y-1.1419
X0.8657Y-1.1419
X0.9641Y-0.9448
X1.0625Y-1.1419
X1.161Y-1.1419
X2.9427Y-1.1411
X3.0412Y-1.1411
X3.1396Y-0.944
X3.238Y-1.1411
X3.3364Y-1.1411
T5
X0.8099Y-3.7596
X1.0756Y-3.7911
X1.3414Y-3.7596
X1.5737Y-3.7596
X1.8394Y-3.7911
X2.1051Y-3.7596
T6
X2.3666Y-3.4321
X3.3508Y-3.4321
T3
G00X1.9268Y-0.8894
M15
G01X1.9268Y-0.9288
M16
G05
G00X2.4976Y-0.8894
M15
G01X2.4976Y-0.9288
M16
G05
T4
G00X1.9268Y-1.1083
M15
G01X1.9268Y-1.1792
M16
G05
G00X2.4976Y-1.1083
M15
G01X2.4976Y-1.1792
M16
G05
T0
M30
